<!-- Generated by IcoMoon.io -->
<svg version="1.1" xmlns="http://www.w3.org/2000/svg" width="16" height="16" viewBox="0 0 16 16">
<title>lock_outline</title>
<rect fill="#f7f7f7" x="0" y="0" width="16" height="16"></rect>
<path d="M12 13.344v-6.688h-8v6.688h8zM5.938 4v1.344h4.125v-1.344q0-0.844-0.609-1.453t-1.453-0.609-1.453 0.609-0.609 1.453zM12 5.344q0.531 0 0.938 0.391t0.406 0.922v6.688q0 0.531-0.406 0.922t-0.938 0.391h-8q-0.531 0-0.938-0.391t-0.406-0.922v-6.688q0-0.531 0.406-0.922t0.938-0.391h0.656v-1.344q0-1.375 0.984-2.359t2.359-0.984 2.359 0.984 0.984 2.359v1.344h0.656zM8 11.344q-0.531 0-0.938-0.406t-0.406-0.938 0.406-0.938 0.938-0.406 0.938 0.406 0.406 0.938-0.406 0.938-0.938 0.406z"></path>
</svg>
